<svg width="28" height="28" viewBox="0 0 28 28" fill="none" xmlns="http://www.w3.org/2000/svg">
<path d="M2 13.52C2 8.09 2 5.37 3.69 3.69C5.37 2 8.09 2 13.52 2H14.48C19.91 2 22.63 2 24.31 3.69C26 5.37 26 8.09 26 13.52V14.48C26 19.91 26 22.63 24.31 24.31C22.63 26 19.91 26 14.48 26H13.52C8.09 26 5.37 26 3.69 24.31C2 22.63 2 19.91 2 14.48V13.52Z" fill="#0077FF"/>
<path d="M14.7146 19C9.24797 19 6.12992 15.2462 6 9H8.73829C8.82823 13.5846 10.847 15.5265 12.446 15.9269V9H15.0244V12.954C16.6034 12.7838 18.2623 10.982 18.822 9H21.4004C21.1895 10.0279 20.7691 11.0012 20.1655 11.8589C19.562 12.7167 18.7882 13.4405 17.8926 13.985C18.8923 14.4825 19.7753 15.1868 20.4833 16.0512C21.1913 16.9157 21.7082 17.9207 22 19H19.1618C18.8999 18.0626 18.3676 17.2234 17.6316 16.5877C16.8956 15.952 15.9886 15.5481 15.0244 15.4264V19H14.7146V19Z" fill="white"/>
</svg>
